<svg width="24" height="24" viewBox="0 0 24 24" fill="none" xmlns="http://www.w3.org/2000/svg">
<path fill-rule="evenodd" clip-rule="evenodd" d="M12 3C12.4839 3 12.8763 3.38701 12.8763 3.86441V17.9344L15.4816 15.1667C15.8109 14.8169 16.3653 14.7966 16.72 15.1215C17.0746 15.4463 17.0952 15.9932 16.7658 16.3431L12.6421 20.7238C12.4763 20.8999 12.2437 21 12 21C11.7563 21 11.5237 20.8999 11.3578 20.7238L7.23415 16.3431C6.90484 15.9932 6.92538 15.4463 7.28002 15.1214C7.63467 14.7966 8.18912 14.8169 8.51843 15.1667L11.1237 17.9343V3.86441C11.1237 3.38701 11.516 3 12 3Z" fill="#252525"/>
</svg>
