<svg width="44" height="56" viewBox="8 2 44 56" fill="none" xmlns="http://www.w3.org/2000/svg">
<path fill-rule="evenodd" clip-rule="evenodd" d="M37.6472 51.855C43.999 44.0026 52 32.5945 52 24.9505C52 12.2753 42.1503 2 30 2C17.8497 2 8 12.2753 8 24.9505C8 32.5945 16.001 44.0026 22.3528 51.855C25.6667 55.9517 27.3236 58 30 58C32.6764 58 34.3333 55.9517 37.6472 51.855Z" fill="#4F9F57"/>
<path d="M39.2277 20.7238C39.9742 20.7238 40.2858 19.711 39.6795 19.2441L30.4541 12.1569C30.3223 12.055 30.1633 12 29.9999 12C29.8366 12 29.6775 12.055 29.5458 12.1569L20.3204 19.2441C19.7141 19.7084 20.0257 20.7238 20.7746 20.7238H22.2699V30.2652H20.5306C20.4243 30.2652 20.3373 30.357 20.3373 30.4693V31.7959C20.3373 31.9082 20.4243 32 20.5306 32H39.4693C39.5756 32 39.6625 31.9082 39.6625 31.7959V30.4693C39.6625 30.357 39.5756 30.2652 39.4693 30.2652H37.73V20.7238H39.2277ZM29.9999 13.9555L36.5488 18.9864H23.4511L29.9999 13.9555ZM24.0091 20.7238H26.8354V30.2652H24.0091V20.7238ZM28.5747 20.7238H31.401V30.2652H28.5747V20.7238ZM35.9908 30.2652H33.1403V20.7238H35.9908V30.2652Z" fill="white"/>
</svg>
