<svg width="44" height="56" viewBox="8 2 44 56" fill="none" xmlns="http://www.w3.org/2000/svg">
<path fill-rule="evenodd" clip-rule="evenodd" d="M37.6472 51.855C43.999 44.0026 52 32.5945 52 24.9505C52 12.2753 42.1503 2 30 2C17.8497 2 8 12.2753 8 24.9505C8 32.5945 16.001 44.0026 22.3528 51.855C25.6667 55.9517 27.3236 58 30 58C32.6764 58 34.3333 55.9516 37.6472 51.855Z" fill="white"/>
<path fill-rule="evenodd" clip-rule="evenodd" d="M21.4215 14.7288C21.1078 14.7288 20.7235 15.0333 20.7235 15.5772V18.9946H39.2765V15.5772C39.2765 15.0333 38.8922 14.7288 38.5785 14.7288H21.4215ZM41 15.5772C41 14.2291 39.9876 13 38.5785 13H21.4215C20.0124 13 19 14.2291 19 15.5772V28.4228C19 29.7709 20.0124 31 21.4215 31H38.5785C39.9876 31 41 29.7709 41 28.4228V15.5772ZM39.2765 20.7235H20.7235V28.4228C20.7235 28.9667 21.1078 29.2712 21.4215 29.2712H38.5785C38.8922 29.2712 39.2765 28.9667 39.2765 28.4228V20.7235ZM33.0376 25.8537C33.0376 25.3763 33.4234 24.9893 33.8993 24.9893H36.2389C36.7149 24.9893 37.1007 25.3763 37.1007 25.8537C37.1007 26.3311 36.7149 26.7181 36.2389 26.7181H33.8993C33.4234 26.7181 33.0376 26.3311 33.0376 25.8537Z" fill="#4F9F57"/>
</svg>
