<svg width="24" height="24" viewBox="0 0 24 24" fill="none" xmlns="http://www.w3.org/2000/svg">
<path fill-rule="evenodd" clip-rule="evenodd" d="M10.2893 3.7833C10.7907 3.28295 11.4729 3 12.1864 3C12.8999 3 13.582 3.28295 14.0834 3.7833C14.5844 4.28331 14.8641 4.95937 14.8641 5.66222C14.8641 6.36508 14.5844 7.04113 14.0834 7.54115C13.582 8.0415 12.8999 8.32444 12.1864 8.32444C11.4729 8.32444 10.7907 8.0415 10.2893 7.54115C9.78831 7.04113 9.50862 6.36508 9.50862 5.66222C9.50862 4.95937 9.78831 4.28331 10.2893 3.7833ZM12.1864 4.72881C11.9443 4.72881 11.71 4.82469 11.5357 4.99865C11.3611 5.17295 11.2612 5.41145 11.2612 5.66222C11.2612 5.91299 11.3611 6.1515 11.5357 6.3258C11.71 6.49976 11.9443 6.59563 12.1864 6.59564C12.4285 6.59563 12.6627 6.49976 12.837 6.3258C13.0117 6.1515 13.1116 5.91299 13.1116 5.66222C13.1116 5.41145 13.0117 5.17295 12.837 4.99865C12.6627 4.82469 12.4285 4.72881 12.1864 4.72881ZM9.77958 10.6674C9.28449 10.9838 8.75259 11.6295 8.75259 13.1708C8.75259 13.6482 8.36027 14.0352 7.87632 14.0352C7.39237 14.0352 7.00006 13.6482 7.00006 13.1708C7.00006 11.1668 7.7364 9.91315 8.82684 9.21641C9.84422 8.56636 11.0156 8.50761 11.682 8.50761H12.9511C13.3695 8.50761 13.7295 8.79937 13.8107 9.20424C13.8969 9.63384 14.1424 10.3476 14.5831 10.996C15.0221 11.6418 15.602 12.1492 16.3382 12.3327C16.8074 12.4497 17.0917 12.9197 16.9731 13.3826C16.8545 13.8454 16.378 14.1258 15.9088 14.0089C14.6148 13.6863 13.7143 12.822 13.1275 11.9588C12.7694 11.4318 12.5085 10.8779 12.3312 10.384L11.3656 14.2405L15.5491 19.6087C15.844 19.9872 15.7721 20.5299 15.3884 20.8209C15.0048 21.1118 14.4546 21.0409 14.1597 20.6624L9.71901 14.9642C9.55649 14.7557 9.49907 14.4855 9.56301 14.2301L10.533 10.3559C10.268 10.4212 10.0103 10.52 9.77958 10.6674ZM10.3016 16.909C10.6903 17.1934 10.7717 17.7348 10.4834 18.1183L8.58012 20.6496C8.29182 21.033 7.743 21.1133 7.3543 20.8289C6.9656 20.5445 6.88422 20.0031 7.17252 19.6197L9.07579 17.0884C9.36409 16.7049 9.91291 16.6247 10.3016 16.909Z" fill="#7A7A7A"/>
</svg>
