<svg width="40" height="40" viewBox="0 0 40 40" fill="none" xmlns="http://www.w3.org/2000/svg">
<path d="M13.8571 6.98228C12.123 8.45111 10.1202 11.7699 10.1202 11.7699L0.656609 30.8492C-1.32664 34.8476 1.41694 39.5463 5.74791 39.7642C8.76922 39.9163 11.509 38.0612 12.8869 35.3245L23.7201 13.8115C23.7201 13.8115 15.5915 5.51346 13.8571 6.98228Z" fill="url(#paint0_linear_968_70744)"/>
<path d="M10.1202 11.7699C11.385 9.2587 14.0406 9.78212 14.8704 11.4679L19.8661 21.3709L21.6647 24.9347L24.4805 30.5173C26.1098 33.6931 24.8972 37.6084 21.7723 39.2645C20.7995 39.7798 19.7551 40.0156 18.7297 39.9991H33.5254C34.5506 40.0156 35.595 39.7798 36.5678 39.2645C39.6927 37.6084 40.9051 33.6931 39.2758 30.5173L25.6453 3.49404C23.2706 -1.16472 16.7134 -1.16472 14.3387 3.49404L10.1202 11.7699Z" fill="url(#paint1_linear_968_70744)"/>
<path d="M21.6647 24.9347L9.94414 24.9407C8.81323 24.9411 8.07733 26.1489 8.58161 27.1777L13.1659 36.512C14.2873 38.6989 16.4632 39.964 18.7297 39.9991C19.7551 40.0156 20.7995 39.7798 21.7723 39.2645C24.8972 37.6084 26.1098 33.6931 24.4805 30.5173L21.6647 24.9347Z" fill="url(#paint2_linear_968_70744)"/>
<defs>
<linearGradient id="paint0_linear_968_70744" x1="-4.97444" y1="42.2896" x2="18.9952" y2="14.2869" gradientUnits="userSpaceOnUse">
<stop stop-color="#B3E0B8"/>
<stop offset="0.24678" stop-color="#4F9F57"/>
<stop offset="1" stop-color="#216A28"/>
</linearGradient>
<linearGradient id="paint1_linear_968_70744" x1="36.2424" y1="50.555" x2="23.5396" y2="-5.85151" gradientUnits="userSpaceOnUse">
<stop offset="0.106081" stop-color="#B3E0B8"/>
<stop offset="0.683119" stop-color="#4F9F57"/>
</linearGradient>
<linearGradient id="paint2_linear_968_70744" x1="10.459" y1="27.3346" x2="24.0035" y2="34.8581" gradientUnits="userSpaceOnUse">
<stop stop-color="#26702D"/>
<stop offset="1" stop-color="#18421D"/>
</linearGradient>
</defs>
</svg>

