<svg width="260" height="166" viewBox="0 0 260 166" fill="none" xmlns="http://www.w3.org/2000/svg">
<g clip-path="url(#clip0_9389_156105)">
<mask id="mask0_9389_156105" style="mask-type:luminance" maskUnits="userSpaceOnUse" x="0" y="0" width="260" height="166">
<path d="M260 0H0V166H260V0Z" fill="white"/>
</mask>
<g mask="url(#mask0_9389_156105)">
<path d="M12 166L248 166C254.627 166 260 160.627 260 154V12C260 5.37259 254.627 0 248 0L12 0C5.37259 0 0 5.37259 0 12V154C0 160.627 5.37259 166 12 166Z" fill="url(#paint0_linear_9389_156105)"/>
<path d="M12 165L248 165C254.075 165 259 160.075 259 154V12C259 5.92487 254.075 1 248 1L12 1C5.92487 1 1 5.92487 1 12V154C1 160.075 5.92487 165 12 165Z" stroke="url(#paint1_linear_9389_156105)" stroke-width="2"/>
<path d="M-5.90102 313.796C-15.0938 314.705 -21.8225 305.321 -18.0126 296.905L152.997 -80.8249C156.807 -89.2403 168.298 -90.3755 173.681 -82.8684L415.3 254.096C420.683 261.603 415.921 272.122 406.728 273.03L-5.90102 313.796Z" fill="url(#paint2_linear_9389_156105)"/>
<path d="M187.641 144.926C196.833 145.834 203.562 136.451 199.752 128.035L66.6785 -165.901C62.8686 -174.316 51.3776 -175.452 45.9946 -167.944L-142.025 94.2687C-147.408 101.776 -142.645 112.295 -133.453 113.203L187.641 144.926Z" fill="url(#paint3_linear_9389_156105)"/>
</g>
</g>
<defs>
<linearGradient id="paint0_linear_9389_156105" x1="-4.62246e-06" y1="166" x2="266.345" y2="10.896" gradientUnits="userSpaceOnUse">
<stop stop-color="#6578D9"/>
<stop offset="1" stop-color="#51B8F1"/>
</linearGradient>
<linearGradient id="paint1_linear_9389_156105" x1="258" y1="92.142" x2="-2.008" y2="81.196" gradientUnits="userSpaceOnUse">
<stop offset="0.00638632" stop-color="white" stop-opacity="0.32"/>
<stop offset="1" stop-color="#FBFBFB" stop-opacity="0.37"/>
</linearGradient>
<linearGradient id="paint2_linear_9389_156105" x1="-112.743" y1="539.981" x2="342.62" y2="256.374" gradientUnits="userSpaceOnUse">
<stop stop-color="#090785"/>
<stop offset="1" stop-color="#6286E3" stop-opacity="0"/>
</linearGradient>
<linearGradient id="paint3_linear_9389_156105" x1="277.111" y1="325.919" x2="-86.4405" y2="99.4935" gradientUnits="userSpaceOnUse">
<stop stop-color="#072A85"/>
<stop offset="1" stop-color="#5490E9" stop-opacity="0"/>
</linearGradient>
<clipPath id="clip0_9389_156105">
<rect width="260" height="166" fill="white"/>
</clipPath>
</defs>
</svg>
