<svg width="260" height="166" viewBox="0 0 260 166" fill="none" xmlns="http://www.w3.org/2000/svg">
<rect x="1" y="1" width="258" height="164" rx="11" fill="#252525" stroke="url(#paint0_linear_9300_55166)" stroke-width="2"/>
<mask id="mask0_9300_55166" style="mask-type:alpha" maskUnits="userSpaceOnUse" x="0" y="0" width="260" height="166">
<rect width="260" height="166" rx="12" fill="#252525"/>
</mask>
<g mask="url(#mask0_9300_55166)">
<path opacity="0.05" d="M200.974 -23.4826L120.861 57.3475C107.607 70.7197 107.607 92.4004 120.861 105.773L200.974 186.603C214.227 199.975 235.716 199.975 248.97 186.603L329.083 105.773C342.336 92.4004 342.336 70.7197 329.083 57.3475L248.97 -23.4827C235.716 -36.8549 214.227 -36.8549 200.974 -23.4826Z" fill="#C2C2C2"/>
<path opacity="0.05" d="M309.436 -31.4444L223.176 55.5878C208.905 69.9861 208.905 93.3303 223.176 107.729L309.436 194.761C323.706 209.159 346.844 209.159 361.114 194.761L447.374 107.729C461.645 93.3304 461.645 69.9861 447.374 55.5878L361.114 -31.4444C346.844 -45.8428 323.706 -45.8428 309.436 -31.4444Z" fill="#C2C2C2"/>
</g>
<defs>
<linearGradient id="paint0_linear_9300_55166" x1="4.33334" y1="-4.36842" x2="237.51" y2="115.846" gradientUnits="userSpaceOnUse">
<stop stop-color="#3A3A3A" stop-opacity="0.32"/>
<stop offset="1" stop-color="#323232" stop-opacity="0.37"/>
</linearGradient>
</defs>
</svg>
