<svg width="260" height="166" viewBox="0 0 260 166" fill="none" xmlns="http://www.w3.org/2000/svg">
<g clip-path="url(#clip0_9389_156121)">
<rect x="260" y="166" width="260" height="166" rx="12" transform="rotate(-180 260 166)" fill="url(#paint0_linear_9389_156121)"/>
<rect x="259" y="165" width="258" height="164" rx="11" transform="rotate(-180 259 165)" stroke="url(#paint1_linear_9389_156121)" stroke-width="2"/>
<path d="M123.64 184.926C132.833 185.834 139.562 176.451 135.752 168.035L2.67838 -125.901C-1.1315 -134.316 -12.6226 -135.452 -18.0055 -127.944L-206.025 134.269C-211.408 141.776 -206.645 152.295 -197.453 153.203L123.64 184.926Z" fill="url(#paint2_linear_9389_156121)"/>
<path d="M36.168 141.974C26.9751 142.882 20.2465 133.498 24.0563 125.083L195.066 -252.647C198.876 -261.063 210.367 -262.198 215.75 -254.691L457.369 82.2733C462.752 89.7804 457.99 100.3 448.797 101.208L36.168 141.974Z" fill="url(#paint3_linear_9389_156121)"/>
</g>
<defs>
<linearGradient id="paint0_linear_9389_156121" x1="520" y1="166" x2="253.655" y2="321.104" gradientUnits="userSpaceOnUse">
<stop stop-color="#D6B359"/>
<stop offset="1" stop-color="#EAC649"/>
</linearGradient>
<linearGradient id="paint1_linear_9389_156121" x1="260" y1="237.858" x2="520.008" y2="248.804" gradientUnits="userSpaceOnUse">
<stop offset="0.00638632" stop-color="white" stop-opacity="0.32"/>
<stop offset="1" stop-color="#FBFBFB" stop-opacity="0.37"/>
</linearGradient>
<linearGradient id="paint2_linear_9389_156121" x1="213.111" y1="365.919" x2="-150.441" y2="139.494" gradientUnits="userSpaceOnUse">
<stop stop-color="#854307"/>
<stop offset="1" stop-color="#E9BF54" stop-opacity="0"/>
</linearGradient>
<linearGradient id="paint3_linear_9389_156121" x1="-70.6736" y1="368.159" x2="384.689" y2="84.5519" gradientUnits="userSpaceOnUse">
<stop stop-color="#B49119"/>
<stop offset="1" stop-color="#E3A062" stop-opacity="0"/>
</linearGradient>
<clipPath id="clip0_9389_156121">
<rect x="260" y="166" width="260" height="166" rx="12" transform="rotate(-180 260 166)" fill="white"/>
</clipPath>
</defs>
</svg>
