<svg width="224" height="146" viewBox="0 0 224 146" fill="none" xmlns="http://www.w3.org/2000/svg">
<g clip-path="url(#clip0_6860_171030)">
<rect width="224" height="146" fill="white"/>
<g clip-path="url(#clip1_6860_171030)">
<path fill-rule="evenodd" clip-rule="evenodd" d="M69.0211 54.0441L68.9941 54.0711C67.4507 55.1697 65.6243 54.7451 64.2764 53.3971C62.9284 52.0492 62.5241 50.27 63.6024 48.6794L66.2983 45.9836C67.8551 44.8985 69.6681 45.3096 71.016 46.6575C72.3639 48.0055 72.802 49.8184 71.6899 51.3753L69.0211 54.0441ZM82.4733 60.8108L76.4076 66.8764C75.0597 68.2244 73.0445 66.7619 72.6065 65.2859L69.021 54.0442L71.6899 51.3753L71.7168 51.3484L82.9248 54.9675C84.3334 55.4461 85.87 57.414 84.5221 58.7619L82.4733 60.8108ZM66.2982 45.9836L63.6023 48.6795L52.3539 45.1007C50.9454 44.6222 49.4492 42.6138 50.7971 41.2659L57.5367 34.5263L58.8846 33.1784C60.2325 31.8305 62.2409 33.2997 62.6723 34.7824L66.2982 45.9836Z" fill="#DB5B5B"/>
<path fill-rule="evenodd" clip-rule="evenodd" d="M89.2129 43.288C90.3991 42.1018 91.7672 41.2054 93.2297 40.6056C92.6231 39.1499 92.2794 37.5526 92.2862 35.8744C92.2794 34.1962 92.6231 32.599 93.223 31.1365C91.7605 30.5366 90.3991 29.647 89.2129 28.4608C88.0267 27.2747 87.1371 25.9133 86.5373 24.4508C85.0748 25.0506 83.4775 25.3943 81.7993 25.3876C80.1212 25.3943 78.5239 25.0506 77.0681 24.444C76.4683 25.9065 75.5719 27.2747 74.3857 28.4608C73.1996 29.647 71.8382 30.5366 70.3757 31.1365C70.9755 32.599 71.3192 34.1962 71.3125 35.8744C71.3192 37.5526 70.9755 39.1499 70.3757 40.6124C71.8382 41.2122 73.1996 42.1018 74.3857 43.288C75.5719 44.4742 76.4615 45.8356 77.0614 47.2981C78.5239 46.6982 80.1212 46.3545 81.7993 46.3612C83.4775 46.3545 85.0748 46.6982 86.5373 47.2981C87.1371 45.8356 88.0267 44.4742 89.2129 43.288ZM103.824 48.5853C104.04 51.0251 103.218 53.5457 101.344 55.4193C99.4773 57.2862 96.9567 58.1084 94.517 57.8927C93.4791 60.1168 91.5111 61.8826 88.9568 62.5768C87.9121 62.8531 84.4952 62.8329 82.4733 60.811L84.5221 58.7621C85.87 57.4142 84.3334 55.4462 82.9248 54.9677L71.7169 51.3486L71.6899 51.3755C72.8019 49.8187 72.3639 48.0057 71.0159 46.6578C69.668 45.3099 67.8551 44.8988 66.2982 45.9838L62.6723 34.7826C62.241 33.2999 60.2326 31.8306 58.8846 33.1786L57.5367 34.5265C55.5148 32.5046 54.8139 29.7953 55.1037 28.7237C55.7844 26.1694 57.5569 24.1947 59.781 23.1568C59.5653 20.717 60.3876 18.1964 62.2544 16.3295C64.1213 14.4627 66.6419 13.6404 69.0884 13.8494C70.1196 11.632 72.0943 9.85951 74.6486 9.17881C77.1962 8.49137 79.7909 9.03728 81.7993 10.4526C83.8077 9.03728 86.4025 8.49137 88.95 9.17881C91.5044 9.85951 93.4791 11.632 94.517 13.8561C96.9567 13.6404 99.4773 14.4627 101.344 16.3295C103.211 18.1964 104.033 20.717 103.818 23.1568C106.042 24.1947 107.814 26.1694 108.502 28.7169C109.182 31.2713 108.636 33.866 107.228 35.8677C108.636 37.8828 109.182 40.4776 108.495 43.0251C107.814 45.5795 106.042 47.5542 103.824 48.5853Z" fill="#B3E0B8"/>
<path fill-rule="evenodd" clip-rule="evenodd" d="M83.7067 16.8081C83.7067 17.8595 82.8508 18.7154 81.7994 18.7154C80.748 18.7154 79.8921 17.8595 79.8921 16.8081C79.8921 15.7567 80.748 14.9008 81.7994 14.9008C82.8508 14.9008 83.7067 15.7567 83.7067 16.8081ZM96.6265 21.0474C97.3678 21.7887 97.3678 23.0018 96.6265 23.7432C95.8851 24.4846 94.672 24.4846 93.9306 23.7432C93.1893 23.0018 93.1893 21.7887 93.9306 21.0474C94.672 20.306 95.8851 20.306 96.6265 21.0474ZM69.668 21.0474C70.4094 21.7887 70.4094 23.0018 69.668 23.7432C68.9267 24.4846 67.7135 24.4846 66.9722 23.7432C66.2308 23.0018 66.2308 21.7887 66.9722 21.0474C67.7135 20.306 68.9267 20.306 69.668 21.0474ZM96.6265 48.0058C97.3746 48.7539 97.3746 49.9536 96.6265 50.7017C95.8851 51.443 94.672 51.443 93.9306 50.7017C93.1893 49.9603 93.1893 48.7472 93.9306 48.0058C94.672 47.2644 95.8851 47.2644 96.6265 48.0058ZM98.9584 35.8745C98.9584 34.8231 99.8143 33.9672 100.866 33.9672C101.917 33.9672 102.773 34.8231 102.773 35.8745C102.773 36.9259 101.917 37.7818 100.866 37.7818C99.8143 37.7818 98.9584 36.9259 98.9584 35.8745Z" fill="#DB5B5B"/>
<path d="M85.8552 62.8189C86.8662 62.924 87.9142 62.8492 88.9554 62.5709C91.5091 61.8855 93.4811 60.117 94.5143 57.8922C96.9574 58.1099 99.4746 57.2857 101.346 55.4161C103.214 53.5459 104.039 51.0286 103.82 48.5862C106.044 47.5523 107.813 45.579 108.498 43.0253C109.182 40.4717 108.636 37.879 107.227 35.8726C108.636 33.8648 109.181 31.2721 108.497 28.7171C107.813 26.1635 106.044 24.1922 103.82 23.1596C104.037 20.7165 103.214 18.1986 101.344 16.3284C99.4739 14.4588 96.9554 13.6346 94.5129 13.8529C93.4797 11.6282 91.5077 9.8597 88.9527 9.17428C86.3984 8.49088 83.8057 9.03612 81.8 10.446C79.7923 9.03679 77.2002 8.49088 74.6452 9.17496C72.0909 9.8597 70.1189 11.6282 69.0857 13.8529C66.6433 13.6359 64.1254 14.4595 62.2544 16.3291C60.3849 18.1986 59.562 20.7172 59.7797 23.1603C57.5556 24.1928 55.7864 26.1655 55.1017 28.7198C54.8139 29.7921 54.7438 30.8718 54.8638 31.911M66.2975 45.9827L62.675 34.7781C62.2403 33.3041 60.2319 31.8295 58.884 33.1774L50.7964 41.2649C49.4478 42.6135 50.9508 44.6206 52.3546 45.0984L63.6017 48.6785L64.2757 48.0046M69.017 54.0466L72.6051 65.2856C73.0398 66.7595 75.0584 68.2241 76.407 66.8755L84.5181 58.7643C85.866 57.4164 84.33 55.4437 82.9255 54.9652L71.7128 51.3508L71.0153 52.0483M63.6017 48.6785C62.5207 50.265 62.9277 52.0483 64.2757 53.3962C65.6236 54.7442 67.448 55.1654 68.9934 54.0702M66.2975 45.9827C67.8557 44.9016 69.6673 45.3087 71.0153 46.6566C72.3632 48.0046 72.7979 49.8155 71.6892 51.3744M102.768 35.8739C102.769 34.8198 101.915 33.9673 100.862 33.968C99.8103 33.968 98.9563 34.8205 98.9563 35.8733C98.9557 36.9253 99.8103 37.7799 100.862 37.7785C101.913 37.7785 102.769 36.9267 102.768 35.8739ZM96.6258 50.7004C97.3719 49.9557 97.3712 48.75 96.6258 48.0046C95.8824 47.2612 94.6753 47.2605 93.9306 48.0052C93.1859 48.7486 93.1866 49.957 93.9306 50.6997C94.6747 51.4438 95.8817 51.4458 96.6258 50.7004ZM66.9715 21.0461C66.2268 21.7908 66.2274 22.9979 66.9722 23.7426C67.7162 24.4867 68.9226 24.4867 69.6673 23.742C70.4114 22.9979 70.4114 21.7915 69.6673 21.0461C68.924 20.3027 67.7156 20.3021 66.9715 21.0461ZM81.7986 14.905C80.7452 14.9043 79.8927 15.7582 79.8934 16.8116C79.8927 17.8637 80.7466 18.7176 81.7993 18.7176C82.8514 18.7169 83.7046 17.8637 83.7053 16.8116C83.7053 15.7589 82.8514 14.905 81.7986 14.905ZM96.6258 21.0461C95.8817 20.3021 94.674 20.3021 93.9299 21.0461C93.1852 21.7908 93.1859 22.9979 93.9299 23.742C94.6747 24.4867 95.8811 24.4867 96.6258 23.742C97.3698 22.9979 97.3705 21.7908 96.6258 21.0461ZM77.0668 47.2976C78.5259 46.6944 80.1232 46.3574 81.7993 46.3567C83.4761 46.3567 85.0727 46.6944 86.5312 47.2982C87.1364 45.8398 88.026 44.4716 89.2115 43.2862C90.3984 42.1007 91.7659 41.2103 93.2236 40.6058C92.6198 39.1474 92.2828 37.5501 92.2828 35.8733C92.2835 34.1971 92.6204 32.5998 93.2236 31.1407C91.7652 30.5368 90.3977 29.6452 89.2122 28.4597C88.0274 27.2749 87.1357 25.9074 86.5319 24.4489C85.0727 25.0521 83.4761 25.3898 81.7993 25.3898C80.1225 25.3898 78.5252 25.0528 77.0668 24.4489C76.4622 25.9067 75.5719 27.2742 74.3857 28.4604C73.2002 29.6459 71.8328 30.5362 70.3743 31.1414C70.9782 32.5998 71.3159 34.1964 71.3159 35.8733C71.3159 37.5501 70.9782 39.1467 70.375 40.6058C71.8328 41.2103 73.2009 42.1013 74.3857 43.2862C75.5712 44.4716 76.4622 45.8398 77.0668 47.2976Z" stroke="#12131A" stroke-linecap="round" stroke-linejoin="round"/>
</g>
<g clip-path="url(#clip2_6860_171030)">
<path fill-rule="evenodd" clip-rule="evenodd" d="M96.8216 122.795L94.7003 120.674L91.7658 123.608L91.7375 123.637C92.5012 124.231 93.2578 124.888 93.9932 125.624C94.6084 126.239 95.2872 127.017 95.966 127.893L95.9943 127.865L95.966 127.894C97.8964 130.361 99.8338 133.614 100.357 136.23L100.392 136.308C103.461 134.993 106.339 133.077 108.842 130.573C119.385 120.031 119.385 102.933 108.842 92.3897C98.2994 81.8468 81.2016 81.8468 70.6586 92.3897C67.314 95.7343 65.03 99.7436 63.8138 103.986L63.8845 104C63.8845 104 66.3735 104.609 69.5697 106.207C71.9102 107.387 74.6255 109.085 77.0226 111.482L87.6292 100.875V100.168H101.064V115.017H100.357L96.8216 122.795ZM97.4686 126.391L95.9943 127.865L95.9943 127.865L97.4686 126.391Z" fill="white"/>
<path fill-rule="evenodd" clip-rule="evenodd" d="M92.5789 112.896L85.5079 119.967C84.0795 119.359 82.8845 118.984 82.135 118.772C81.7248 117.923 81.2369 117.025 80.6642 116.099L81.2652 115.724L88.3363 108.653L92.5789 112.896Z" fill="white"/>
<path fill-rule="evenodd" clip-rule="evenodd" d="M79.2853 136.372L77.7297 143.301L57.9307 123.502L64.8462 121.933L64.8603 121.947L79.1439 136.23L79.2853 136.372Z" fill="#DB5B5B"/>
<path fill-rule="evenodd" clip-rule="evenodd" d="M79.1441 96.6322L75.6086 104.41L73.4873 102.289L71.3659 100.168L79.1441 96.6322ZM100.357 115.017L96.8218 122.795L94.7005 120.674L92.5791 118.553L100.357 115.017ZM104.6 119.26L101.064 127.038L98.9431 124.916L96.8218 122.795L104.6 119.26Z" fill="#B3E0B8"/>
<path fill-rule="evenodd" clip-rule="evenodd" d="M82.1352 118.772C82.8847 118.984 84.0797 119.359 85.5081 119.967C87.3395 120.752 89.5598 121.926 91.7377 123.637C92.5014 124.231 93.258 124.888 93.9934 125.624C94.6085 126.239 95.2874 127.017 95.9662 127.894C97.8966 130.361 99.8341 133.614 100.357 136.23L100.393 136.308C93.6752 139.179 86.0172 139.2 79.2855 136.372L79.1441 136.23L64.8606 121.947C62.4635 116.24 62.117 109.884 63.814 103.986L63.8847 104C63.8847 104 66.3738 104.609 69.5699 106.207C71.9104 107.387 74.6257 109.084 77.0228 111.482C78.5148 112.974 79.7098 114.565 80.6644 116.099C81.2371 117.025 81.725 117.923 82.1352 118.772Z" fill="white"/>
<path fill-rule="evenodd" clip-rule="evenodd" d="M101.064 115.017H100.357L92.5789 118.552L94.7002 120.674L91.7657 123.608L91.7375 123.637C89.5596 121.925 87.3393 120.752 85.5078 119.967L92.5789 112.896L88.3363 108.653L81.2652 115.724L80.6642 116.099C79.7096 114.564 78.5146 112.973 77.0226 111.481L87.6292 100.875V100.168H101.064V115.017Z" fill="#DB5B5B"/>
<path d="M88.3363 117.138L92.5789 112.896L88.3363 108.653L83.3865 113.603M101.064 111.482V100.168H84.0936M99.0603 117.963L100.357 115.017L92.5789 118.553L94.7002 120.674L91.7686 123.606M98.986 132.752C97.9367 130.553 96.3619 127.993 93.9931 125.624C89.532 121.163 84.1912 119.339 82.1321 118.768M84.0936 124.21C84.0936 124.21 82.6794 117.138 77.0226 111.482C71.3657 105.825 63.8852 104.001 63.8852 104.001M79.851 108.653L87.6292 100.875L79.851 108.653ZM95.9964 127.863L98.9429 124.917L95.9964 127.863ZM96.8216 122.795L101.064 127.038L104.6 119.26L96.8216 122.795ZM69.5682 106.208L73.487 102.289L69.5682 106.208ZM71.3657 100.168L75.6084 104.411L79.1439 96.6324L71.3657 100.168ZM64.8589 121.945C60.7379 112.132 62.6676 100.381 70.6586 92.3897C81.203 81.8454 98.2973 81.8447 108.842 92.3897C119.387 102.934 119.387 120.029 108.842 130.573C100.851 138.565 89.0992 140.494 79.286 136.372L77.7297 143.301L57.9307 123.502L64.8469 121.933L76.3155 133.402L64.8589 121.945Z" stroke="#12131A" stroke-linecap="round" stroke-linejoin="round"/>
</g>
<g clip-path="url(#clip3_6860_171030)">
<path fill-rule="evenodd" clip-rule="evenodd" d="M35.0017 38.7286L14.7554 18.4823L14.6807 18.4191C16.0194 16.6324 17.8751 15.2478 20.0353 14.5124L20.0698 14.6043L35.0993 29.6339H35.1798C35.1798 32.1388 35.1798 34.8161 35.1798 36.7235C35.1798 37.4129 35.1223 38.0794 35.0017 38.7286ZM31.8474 44.7667L31.8646 44.7839C30.3766 46.272 28.4692 47.3406 26.3205 47.8117L26.2573 47.8289L25.6885 47.8806L25.6828 47.7945L12.4572 34.5689L12.4285 34.5747L12.4285 25.3938L12.4687 25.388L31.8474 44.7667Z" fill="white"/>
<path fill-rule="evenodd" clip-rule="evenodd" d="M25.5276 6.27343L31.2728 6.27343C33.5537 6.2562 34.065 8.33023 32.9964 9.14605L26.4296 14.1616C25.7631 14.0008 25.0679 13.9031 24.3555 13.8686L21.2818 14.1502L14.6116 9.14605C13.5602 8.35895 14.0371 6.27343 16.3352 6.27343L20.9314 6.27343L25.5276 6.27343ZM31.2784 55.6881H16.3408C14.0599 55.7054 13.5486 53.6314 14.6172 52.8155L21.4713 47.8574C22.0401 47.978 22.6204 48.0527 23.2179 48.0872L25.6883 47.8804L26.2571 47.8287L26.3203 47.8114L33.002 52.8155C34.0591 53.6084 33.5708 55.6939 31.2784 55.6881Z" fill="#DB5B5B"/>
<path fill-rule="evenodd" clip-rule="evenodd" d="M12.4573 34.5688L25.6828 47.7943L25.6886 47.8805L23.2181 48.0874C22.6206 48.0529 22.0403 47.9782 21.4716 47.8575C16.3066 46.7832 12.4286 42.2042 12.4286 36.7233L12.4286 34.5745L12.4573 34.5688ZM12.4688 25.3879L12.4286 25.3936L12.4286 25.2328C12.4286 22.6704 13.2674 20.3149 14.6807 18.4189L14.7554 18.4821L35.0016 38.7284L35.0074 38.7341C34.5937 41.0782 33.4734 43.1752 31.8647 44.7838L31.8475 44.7666L12.4688 25.3879ZM35.0993 29.6337L20.0698 14.6041L20.0353 14.5122C20.4375 14.3628 20.8569 14.2422 21.282 14.1503L24.3557 13.8687C25.0681 13.9032 25.7633 14.0009 26.4298 14.1618C31.4396 15.3453 35.1798 19.8553 35.1798 25.2328C35.1798 26.4623 35.1798 28.0135 35.1798 29.6337L35.0993 29.6337Z" fill="#DB5B5B"/>
<path d="M20.9305 55.6819L21.505 53.9584M26.6757 55.6819L25.5267 52.2348M21.505 7.99643L20.9305 6.27285M24.9522 10.2945L25.5267 6.27285M31.8465 26.3812L20.0687 14.6035M31.8465 35.5736L14.7544 18.4815M23.2286 45.3405L12.4563 34.5682M29.5484 42.4679L12.4683 25.3879M29.5489 11.8026L32.9955 9.14547C34.0641 8.3285 33.5522 6.25504 31.2719 6.27285L16.3343 6.27285C14.042 6.27285 13.5576 8.3555 14.6107 9.14547L21.2804 14.1479C16.1867 15.2762 12.4287 19.7995 12.4287 25.2322V36.7226C12.4275 42.808 17.2082 47.7782 23.2177 48.0827M24.3512 13.8692C30.3786 14.1559 35.1776 19.1342 35.1776 25.2322C35.1781 28.3731 35.1781 33.5817 35.1776 36.7226C35.1781 42.1697 31.4334 46.6935 26.3218 47.8087L33.0024 52.8185C34.0555 53.6085 33.5712 55.6911 31.2788 55.6911H16.3412C14.0609 55.7089 13.549 53.6355 14.6176 52.8185L18.2613 50.1642" stroke="#12131A" stroke-linecap="round" stroke-linejoin="round"/>
</g>
<g clip-path="url(#clip4_6860_171030)">
<path fill-rule="evenodd" clip-rule="evenodd" d="M26.0365 116.651L17.5654 108.18C17.5583 104.142 17.5583 100.112 17.5512 96.852L26.0365 105.337C26.0294 109.163 26.0294 113.165 26.0365 116.651ZM26.0365 94.0236L18.025 86.0121L17.9684 85.9979C18.5977 83.1766 19.913 80.5886 21.7373 78.4248L21.8221 78.4955L27.4507 84.1241L27.6628 84.2655C26.6305 85.8494 26.0365 87.7445 26.0365 89.781V94.0236ZM53.9389 89.781C53.9389 89.781 53.8823 94.0237 50.0781 94.0237C46.0617 94.0237 45.9344 89.7669 45.9344 89.7669C45.9344 84.2373 41.4584 79.7613 35.9359 79.7684C35.4551 79.7684 34.9743 79.7967 34.5146 79.8745L28.1577 73.5176L28.1507 73.5105C30.5336 72.4003 33.1782 71.7781 35.9359 71.7781C36.6147 71.7781 37.2724 71.8134 37.93 71.8912L37.9229 71.969L53.6136 87.6597L53.8045 87.6385C53.8964 88.3385 53.9389 89.0598 53.9389 89.781ZM25.3294 127.258L25.9799 127.215C25.7819 128.644 24.8627 129.379 23.2081 129.379H20.3796C18.4917 129.372 17.5795 128.474 17.5795 126.579C17.5795 126.565 17.5795 123.666 17.5795 119.508L25.3294 127.258Z" fill="#DB5B5B"/>
<path fill-rule="evenodd" clip-rule="evenodd" d="M28.1581 73.5177L34.515 79.8746C31.63 80.2847 29.1763 81.9323 27.6631 84.2657L27.451 84.1243L21.8224 78.4957L21.7375 78.425C23.477 76.3603 25.6691 74.6632 28.151 73.5106L28.1581 73.5177ZM53.8048 87.6387L53.6139 87.66L37.9232 71.9693L37.9303 71.8915C46.2247 72.8036 52.829 79.3515 53.8048 87.6387ZM18.0252 86.0122L26.0367 94.0237L26.0367 105.337L17.5514 96.8521L17.5514 89.7811C17.5514 88.48 17.6928 87.2213 17.9686 85.998L18.0252 86.0122ZM26.0298 126.558C26.0228 126.791 26.0157 127.01 25.9803 127.215L25.3298 127.258L17.5799 119.508C17.5728 116.248 17.5728 112.217 17.5658 108.18L26.0369 116.651C26.0369 122.28 26.0369 126.551 26.0298 126.558Z" fill="white"/>
<path fill-rule="evenodd" clip-rule="evenodd" d="M33.0109 129.28L31.5967 127.866L33.0109 129.28ZM33.0109 127.866L31.5967 129.28L33.0109 127.866ZM26.6469 66.3475L25.2327 64.9333L26.6469 66.3475ZM26.6469 64.9333L25.2327 66.3475L26.6469 64.9333ZM11.7977 86.8536L10.3835 85.4394L11.7977 86.8536ZM11.7977 85.4394L10.3835 86.8536L11.7977 85.4394ZM0.483968 96.7531L-2.34446 93.9247L0.483968 96.7531ZM0.483968 93.9247L-2.34446 96.7531L0.483968 93.9247ZM44.3246 106.653L41.4962 103.824L44.3246 106.653ZM44.3246 103.824L41.4962 106.653L44.3246 103.824ZM21.6972 123.623L17.4545 119.381L21.6972 123.623ZM21.6972 112.309L17.4545 108.067L21.6972 112.309ZM21.6972 100.996L17.4545 96.7531L21.6972 100.996ZM21.6972 89.682L17.9262 85.911L21.6972 89.682ZM24.5256 81.1968L21.7269 78.398L24.5256 81.1968ZM31.5967 76.9541L28.0611 73.4186L31.5967 76.9541ZM48.5672 82.611L37.8277 71.8714L48.5672 82.611ZM49.9814 93.9247C45.9594 93.9247 45.8385 89.6658 45.8385 89.6658C45.8385 84.1419 41.3618 79.6652 35.8386 79.6645C30.3168 79.6652 25.9405 84.1602 25.9398 89.682C25.9398 89.682 25.932 126.448 25.932 126.459C25.932 128.329 25.0121 129.28 23.1114 129.28L20.2851 129.278C18.3957 129.278 17.4849 128.371 17.4849 126.478C17.4856 126.437 17.4545 89.682 17.4545 89.682C17.4552 79.7408 25.8988 71.6819 35.8393 71.6819C45.7805 71.6826 53.8401 79.7408 53.8401 89.6828C53.8401 89.6828 53.7821 93.924 49.9814 93.9247Z" stroke="#12131A" stroke-linecap="round" stroke-linejoin="round"/>
</g>
<g clip-path="url(#clip5_6860_171030)">
<path fill-rule="evenodd" clip-rule="evenodd" d="M153.638 30.4813L150.084 34.0355L145.345 34.0355L145.345 29.2965L140.606 29.2965L140.606 24.5575L135.867 24.5575L135.867 19.8184L139.421 16.2642L153.638 30.4813ZM129.238 59.5254L149.13 56.3147C150.57 61.6758 147.383 67.1849 142.021 68.6244C136.66 70.0638 131.151 66.8768 129.712 61.5158L129.137 59.555L129.238 59.5254ZM128.758 41.1441C128.355 41.5469 126.501 42.8087 124.428 43.1049L124.363 43.1226L122.242 35.8127C121.91 34.2962 122.627 33.0581 123.427 32.2584L128.758 26.927C132.686 30.8545 132.686 37.2166 128.758 41.1441Z" fill="#DB5B5B"/>
<path fill-rule="evenodd" clip-rule="evenodd" d="M149.131 56.3148L129.238 59.5255L129.138 59.5551L124.363 43.1225L124.428 43.1048C126.502 42.8086 128.356 41.5468 128.759 41.144C132.686 37.2165 132.686 30.8544 128.759 26.9269L135.867 19.8184V24.5574H140.606V29.2964H145.345V34.0355H150.084L145.938 38.1821C144.978 39.1418 144.788 40.1725 145.126 41.3632C145.369 42.2103 149.131 56.3148 149.131 56.3148Z" fill="white"/>
<path fill-rule="evenodd" clip-rule="evenodd" d="M159.562 26.9271L156.008 30.4814C155.356 31.133 154.29 31.133 153.638 30.4814L139.421 16.2643C138.77 15.6127 138.77 14.5464 139.421 13.8948L142.975 10.3405C143.627 9.6889 144.693 9.6889 145.345 10.3405L159.562 24.5576C160.214 25.2092 160.214 26.2755 159.562 26.9271Z" fill="white"/>
<path d="M145.345 56.5461L129.24 59.5263M127.472 42.2324C127.924 41.9114 128.354 41.5488 128.758 41.1442C132.684 37.2185 132.684 30.8528 128.758 26.9271M135.867 24.5576L140.606 24.5576L140.606 29.2966L145.345 29.2966L145.345 34.0357L150.084 34.0357M151.269 28.1119L139.421 16.2643C138.767 15.6103 138.767 14.5494 139.421 13.8948L142.975 10.3405C143.629 9.68653 144.691 9.68653 145.345 10.3405L159.562 24.5576C160.216 25.2116 160.216 26.2731 159.562 26.9271L156.008 30.4814C155.353 31.136 154.292 31.1354 153.638 30.4814L145.937 38.1823C144.975 39.1449 144.79 40.1698 145.127 41.367C145.364 42.2087 149.132 56.3121 149.132 56.3121C150.569 61.6737 147.386 67.187 142.023 68.6241C136.66 70.0612 131.147 66.8778 129.711 61.515L122.242 35.8128C121.909 34.2945 122.625 33.0606 123.427 32.2585L137.052 18.6338" stroke="#12131A" stroke-linecap="round" stroke-linejoin="round"/>
</g>
<g clip-path="url(#clip6_6860_171030)">
<path fill-rule="evenodd" clip-rule="evenodd" d="M154.229 105.126C153.249 104.068 152.418 103.127 151.722 102.304L151.715 102.311L146.906 103.088L146.892 103.088C146.885 103.576 146.687 104.043 146.319 104.411C145.542 105.189 144.269 105.189 143.491 104.411C143.293 104.213 143.151 103.986 143.052 103.746L142.911 103.831L135.713 105.118C135.713 105.118 137.502 109.297 144.933 117.11C145.584 117.803 146.284 118.518 147.026 119.26C147.769 120.002 148.483 120.702 149.176 121.353C156.99 128.785 161.169 130.574 161.169 130.574L162.505 123.213C162.272 123.121 162.06 122.979 161.876 122.796C161.098 122.018 161.098 120.745 161.876 119.967C162.243 119.599 162.724 119.401 163.205 119.387L164.043 114.738C166.804 116.962 168.24 117.846 168.24 117.846L171.648 102.516C173.953 104.411 175.311 105.118 175.311 105.118L178.139 88.1475L160.483 90.2476L160.447 90.2547L161.642 91.9164L161.664 91.9376C161.727 91.8457 161.798 91.7608 161.876 91.683C162.654 90.9052 163.926 90.9052 164.704 91.683C165.482 92.4608 165.482 93.7336 164.704 94.5115C164.417 94.799 164.053 94.9822 163.681 95.0611L163.672 95.0628L148.441 98.0468C148.441 98.0468 149.296 99.4681 151.722 102.304C152.418 103.127 153.249 104.068 154.229 105.126ZM160.232 111.197C161.303 112.214 162.579 113.38 164.061 114.643L164.043 114.738L160.232 111.197Z" fill="#B3E0B8"/>
<path fill-rule="evenodd" clip-rule="evenodd" d="M151.976 112.896C152.754 113.674 152.754 114.947 151.976 115.725C151.198 116.503 149.926 116.503 149.148 115.725C148.37 114.947 148.37 113.674 149.148 112.896C149.926 112.118 151.198 112.118 151.976 112.896ZM161.876 94.5115C161.176 93.8115 161.105 92.7225 161.664 91.9376C161.727 91.8457 161.798 91.7609 161.876 91.6831C162.653 90.9053 163.926 90.9053 164.704 91.6831C165.482 92.4609 165.482 93.7337 164.704 94.5115C164.414 94.8014 164.046 94.9853 163.672 95.063C163.042 95.1833 162.364 94.9994 161.876 94.5115ZM164.704 119.967C165.482 120.745 165.482 122.018 164.704 122.796C164.11 123.39 163.233 123.531 162.505 123.213C162.272 123.121 162.059 122.98 161.876 122.796C161.098 122.018 161.098 120.745 161.876 119.967C162.243 119.6 162.724 119.402 163.205 119.388C163.749 119.366 164.294 119.557 164.704 119.967ZM164.704 102.997C165.482 103.775 165.482 105.047 164.704 105.825C163.926 106.603 162.653 106.603 161.876 105.825C161.098 105.047 161.098 103.775 161.876 102.997C162.653 102.219 163.926 102.219 164.704 102.997ZM146.892 103.089C146.885 103.577 146.687 104.044 146.319 104.411C145.541 105.189 144.269 105.189 143.491 104.411C143.293 104.213 143.151 103.987 143.052 103.747C142.763 103.032 142.911 102.163 143.491 101.583C144.269 100.805 145.541 100.805 146.319 101.583C146.729 101.993 146.927 102.545 146.892 103.089Z" fill="#DB5B5B"/>
<path fill-rule="evenodd" clip-rule="evenodd" d="M149.147 121.381L143.491 127.038L139.248 122.795L144.905 117.139L144.933 117.11C145.584 117.803 146.284 118.517 147.026 119.26C147.769 120.002 148.483 120.702 149.176 121.353L149.147 121.381Z" fill="white"/>
<path d="M139.668 104.3L135.713 105.118C135.713 105.118 137.834 110.067 147.026 119.26C156.219 128.452 161.168 130.574 161.168 130.574L162.505 123.204M163.92 115.338L164.065 114.642C166.799 116.964 168.239 117.846 168.239 117.846L171.646 102.518C173.958 104.411 175.311 105.118 175.311 105.118L178.139 88.1472L166.928 89.6943M161.233 112.124C160.157 111.128 158.957 109.978 157.633 108.653C150.562 101.582 148.44 98.0467 148.44 98.0467L158.694 95.837M179.553 115.017L178.139 113.603L179.553 115.017ZM179.553 113.603L178.139 115.017L179.553 113.603ZM168.239 72.5908L166.825 71.1766L168.239 72.5908ZM168.239 71.1766L166.825 72.5908L168.239 71.1766ZM165.411 83.9045L163.997 82.4903L165.411 83.9045ZM165.411 82.4903L163.997 83.9045L165.411 82.4903ZM149.148 90.2685L146.319 87.4401L149.148 90.2685ZM149.148 87.4401L146.319 90.2685L149.148 87.4401ZM190.16 100.168L187.331 97.3396L190.16 100.168ZM190.16 97.3396L187.331 100.168L190.16 97.3396ZM177.363 85.2495L183.158 86.8037L177.363 85.2495ZM179.484 83.1281L181.037 88.9236L179.484 83.1281ZM182.382 83.9045L178.139 88.1472L182.382 83.9045ZM164.704 119.967C163.923 119.186 162.656 119.186 161.875 119.967C161.095 120.748 161.095 122.015 161.875 122.795C162.656 123.576 163.923 123.576 164.704 122.795C165.485 122.015 165.485 120.748 164.704 119.967ZM164.704 91.6827C163.923 90.9021 162.656 90.9021 161.875 91.6827C161.095 92.4634 161.095 93.7305 161.875 94.5111C162.656 95.2918 163.923 95.2918 164.704 94.5111C165.485 93.7305 165.485 92.4634 164.704 91.6827ZM146.319 101.582C145.538 100.802 144.271 100.802 143.491 101.582C142.71 102.363 142.71 103.63 143.491 104.411C144.271 105.191 145.538 105.191 146.319 104.411C147.1 103.63 147.1 102.363 146.319 101.582ZM151.976 112.896C151.195 112.115 149.928 112.115 149.148 112.896C148.367 113.677 148.367 114.944 149.148 115.724C149.928 116.505 151.195 116.505 151.976 115.724C152.757 114.944 152.757 113.677 151.976 112.896ZM164.704 102.996C163.923 102.216 162.656 102.216 161.875 102.996C161.095 103.777 161.095 105.044 161.875 105.825C162.656 106.605 163.923 106.605 164.704 105.825C165.485 105.044 165.485 103.777 164.704 102.996ZM160.461 144.009L161.875 145.423L160.461 144.009ZM127.934 111.482L157.633 141.18L127.934 111.482ZM120.863 104.411L125.106 108.653L120.863 104.411ZM147.026 123.503L143.491 127.038L147.026 123.503ZM142.784 119.26L139.248 122.795L142.784 119.26ZM164.052 94.9863C164.052 94.9863 165.397 96.6183 167.532 98.7538C168.032 99.2537 168.51 99.7176 168.967 100.147L164.052 94.9863Z" stroke="#12131A" stroke-linecap="round" stroke-linejoin="round"/>
</g>
<g clip-path="url(#clip7_6860_171030)">
<path fill-rule="evenodd" clip-rule="evenodd" d="M217.615 119.931L197.369 99.685L197.295 99.6218C198.633 97.835 200.489 96.4504 202.649 95.715L202.684 95.8069L217.713 110.836H217.794C217.794 113.341 217.794 116.019 217.794 117.926C217.794 118.616 217.736 119.282 217.615 119.931ZM214.461 125.969L214.478 125.987C212.99 127.475 211.083 128.543 208.934 129.014L208.871 129.032L208.302 129.083L208.297 128.997L195.071 115.772L195.042 115.777L195.042 106.596L195.082 106.591L214.461 125.969Z" fill="white"/>
<path fill-rule="evenodd" clip-rule="evenodd" d="M208.141 87.4761L213.887 87.4761C216.167 87.4588 216.679 89.5329 215.61 90.3487L209.043 95.3643C208.377 95.2034 207.682 95.1057 206.969 95.0713L203.896 95.3528L197.225 90.3487C196.174 89.5616 196.651 87.4761 198.949 87.4761L203.545 87.4761L208.141 87.4761ZM213.892 136.891H198.955C196.674 136.908 196.162 134.834 197.231 134.018L204.085 129.06C204.654 129.181 205.234 129.255 205.832 129.29L208.302 129.083L208.871 129.031L208.934 129.014L215.616 134.018C216.673 134.811 216.185 136.897 213.892 136.891Z" fill="#DB5B5B"/>
<path fill-rule="evenodd" clip-rule="evenodd" d="M195.071 115.771L208.297 128.997L208.302 129.083L205.832 129.29C205.234 129.256 204.654 129.181 204.085 129.06C198.92 127.986 195.042 123.407 195.042 117.926L195.042 115.777L195.071 115.771ZM195.083 106.591L195.042 106.596L195.042 106.435C195.042 103.873 195.881 101.517 197.294 99.6216L197.369 99.6848L217.615 119.931L217.621 119.937C217.207 122.281 216.087 124.378 214.478 125.986L214.461 125.969L195.083 106.591ZM217.713 110.836L202.684 95.8068L202.649 95.7149C203.051 95.5655 203.471 95.4448 203.896 95.3529L206.97 95.0714C207.682 95.1059 208.377 95.2035 209.044 95.3644C214.053 96.5479 217.794 101.058 217.794 106.435C217.794 107.665 217.794 109.216 217.794 110.836L217.713 110.836Z" fill="#DB5B5B"/>
<path d="M203.544 136.885L204.119 135.161M209.29 136.885L208.14 133.437M204.119 89.1991L203.544 87.4755M207.566 91.4972L208.14 87.4755M214.46 107.584L202.682 95.8061M214.46 116.776L197.368 99.6841M205.842 126.543L195.07 115.771M212.162 123.671L195.082 106.59M212.163 93.0053L215.609 90.3481C216.678 89.5311 216.166 87.4577 213.886 87.4755L198.948 87.4755C196.656 87.4755 196.171 89.5581 197.225 90.3481L203.894 95.3505C198.8 96.4789 195.042 101.002 195.042 106.435V117.925C195.041 124.011 199.822 128.981 205.831 129.285M206.965 95.0718C212.992 95.3585 217.791 100.337 217.791 106.435C217.792 109.576 217.792 114.784 217.791 117.925C217.792 123.372 214.047 127.896 208.936 129.011L215.616 134.021C216.669 134.811 216.185 136.894 213.893 136.894H198.955C196.675 136.912 196.163 134.838 197.231 134.021L200.875 131.367" stroke="#12131A" stroke-linecap="round" stroke-linejoin="round"/>
</g>
<g clip-path="url(#clip8_6860_171030)">
<path fill-rule="evenodd" clip-rule="evenodd" d="M206.893 31.2556L206.887 31.2613C206.22 29.4803 205.169 27.8084 203.733 26.3721C202.296 24.9358 200.625 23.8844 198.844 23.218L202.009 20.0524C202.641 19.4204 203.675 19.4204 204.307 20.0524L204.882 20.6269L209.478 25.2231L210.052 25.7976C210.684 26.4296 210.684 27.4637 210.052 28.0957L206.893 31.2556Z" fill="white"/>
<path fill-rule="evenodd" clip-rule="evenodd" d="M198.844 23.2182C200.625 23.8847 202.296 24.9361 203.733 26.3724C205.169 27.8087 206.22 29.4806 206.887 31.2616C208.748 36.1795 207.691 41.9477 203.733 45.9062C197.413 52.226 183.624 54.5241 179.603 50.5024C175.581 46.4807 177.879 32.6921 184.199 26.3724C188.157 22.4139 193.926 21.3568 198.844 23.2182Z" fill="#DB5B5B"/>
<path d="M202.335 39.2806C203.08 37.2927 203.092 35.0928 202.372 33.0987M198.84 23.2215L202.009 20.0524C202.643 19.4181 203.673 19.4181 204.307 20.0524L210.052 25.7976C210.687 26.4319 210.687 27.4614 210.052 28.0957L208.903 29.2448M197.987 53.9493L202.009 59.12L197.987 53.9493ZM176.156 32.1174L170.985 28.0957L176.156 32.1174ZM209.478 25.2231C210.747 23.954 210.747 21.896 209.478 20.6269C208.209 19.3578 206.151 19.3578 204.882 20.6269L209.478 25.2231ZM191.668 55.6729L193.391 61.9926L191.668 55.6729ZM174.432 38.4372L168.112 36.7136L174.432 38.4372ZM173.857 44.7569L168.112 45.906L173.857 44.7569ZM185.348 56.2474L184.199 61.9926L185.348 56.2474ZM203.733 45.906C209.127 40.5118 209.127 31.7664 203.733 26.3721C198.339 20.9779 189.593 20.9779 184.199 26.3721C177.879 32.6919 175.581 46.4805 179.603 50.5022C183.624 54.5238 197.413 52.2257 203.733 45.906Z" stroke="#12131A" stroke-linecap="round" stroke-linejoin="round"/>
</g>
</g>
<defs>
<clipPath id="clip0_6860_171030">
<rect width="224" height="146" fill="white"/>
</clipPath>
<clipPath id="clip1_6860_171030">
<rect width="61" height="61" fill="white" transform="translate(81.7993 -7.25928) rotate(45)"/>
</clipPath>
<clipPath id="clip2_6860_171030">
<rect width="64" height="64" fill="white" transform="translate(88.3364 67.6411) rotate(45)"/>
</clipPath>
<clipPath id="clip3_6860_171030">
<rect width="52" height="52" fill="white" transform="translate(23.8096 -5.7832) rotate(45)"/>
</clipPath>
<clipPath id="clip4_6860_171030">
<rect width="64" height="64" fill="white" transform="translate(28.061 52.2056) rotate(45)"/>
</clipPath>
<clipPath id="clip5_6860_171030">
<rect width="53.616" height="53.616" fill="white" transform="translate(141.198 2.63965) rotate(45)"/>
</clipPath>
<clipPath id="clip6_6860_171030">
<rect width="64" height="64" fill="white" transform="translate(161.875 59.1558) rotate(45)"/>
</clipPath>
<clipPath id="clip7_6860_171030">
<rect width="52" height="52" fill="white" transform="translate(206.423 75.4194) rotate(45)"/>
</clipPath>
<clipPath id="clip8_6860_171030">
<rect width="52" height="52" fill="white" transform="translate(192.817 0.518555) rotate(45)"/>
</clipPath>
</defs>
</svg>
