<svg width="44" height="56" viewBox="8 2 44 56" fill="none" xmlns="http://www.w3.org/2000/svg">
<path fill-rule="evenodd" clip-rule="evenodd" d="M37.6472 51.855C43.999 44.0026 52 32.5945 52 24.9505C52 12.2753 42.1503 2 30 2C17.8497 2 8 12.2753 8 24.9505C8 32.5945 16.001 44.0026 22.3528 51.855C25.6667 55.9517 27.3236 58 30 58C32.6764 58 34.3333 55.9516 37.6472 51.855Z" fill="#4F9F57"/>
<path fill-rule="evenodd" clip-rule="evenodd" d="M21.4271 15.7455C21.0549 15.7455 20.7368 16.0547 20.7368 16.4566V27.5434C20.7368 27.9453 21.0549 28.2545 21.4271 28.2545H38.5729C38.9451 28.2545 39.2632 27.9453 39.2632 27.5434V16.4566C39.2632 16.0547 38.9451 15.7455 38.5729 15.7455H21.4271ZM19 16.4566C19 15.109 20.0776 14 21.4271 14H38.5729C39.9224 14 41 15.109 41 16.4566V27.5434C41 28.891 39.9224 30 38.5729 30H21.4271C20.0776 30 19 28.891 19 27.5434V16.4566ZM22.8968 18.8323C22.8968 18.3503 23.2856 17.9596 23.7652 17.9596H24.5445C25.0241 17.9596 25.4129 18.3503 25.4129 18.8323C25.4129 19.3143 25.0241 19.7051 24.5445 19.7051H23.7652C23.2856 19.7051 22.8968 19.3143 22.8968 18.8323ZM30 20.497C29.1974 20.497 28.5304 21.1608 28.5304 22C28.5304 22.8392 29.1974 23.503 30 23.503C30.8026 23.503 31.4696 22.8392 31.4696 22C31.4696 21.1608 30.8026 20.497 30 20.497ZM26.7935 22C26.7935 20.215 28.2201 18.7515 30 18.7515C31.7799 18.7515 33.2065 20.215 33.2065 22C33.2065 23.785 31.7799 25.2485 30 25.2485C28.2201 25.2485 26.7935 23.785 26.7935 22ZM34.587 25.1677C34.587 24.6857 34.9759 24.295 35.4555 24.295H36.2348C36.7144 24.295 37.1032 24.6857 37.1032 25.1677C37.1032 25.6497 36.7144 26.0404 36.2348 26.0404H35.4555C34.9759 26.0404 34.587 25.6497 34.587 25.1677Z" fill="white"/>
</svg>