<svg width="260" height="166" viewBox="0 0 260 166" fill="none" xmlns="http://www.w3.org/2000/svg">
<g clip-path="url(#clip0_11297_186370)">
<rect width="260" height="166" rx="16" fill="#7686C0"/>
<rect x="1" y="1" width="258" height="164" rx="15" stroke="url(#paint0_linear_11297_186370)" stroke-width="2"/>
<g opacity="0.1">
<path d="M165.237 140.227L263.487 20" stroke="white" stroke-width="9" stroke-linecap="round"/>
<path d="M274.5 118.213C274.5 131.552 263.471 142.5 249.697 142.5C235.924 142.5 224.895 131.552 224.895 118.213C224.895 104.875 235.924 93.9268 249.697 93.9268C263.471 93.9268 274.5 104.875 274.5 118.213Z" stroke="white" stroke-width="9"/>
<path d="M202.105 48.7867C202.105 62.1248 191.076 73.0733 177.303 73.0733C163.529 73.0733 152.5 62.1248 152.5 48.7867C152.5 35.4485 163.529 24.5 177.303 24.5C191.076 24.5 202.105 35.4485 202.105 48.7867Z" stroke="white" stroke-width="9"/>
</g>
</g>
<defs>
<linearGradient id="paint0_linear_11297_186370" x1="-1.13777e-06" y1="72.625" x2="260.001" y2="74.1391" gradientUnits="userSpaceOnUse">
<stop stop-color="white" stop-opacity="0.31"/>
<stop offset="1" stop-color="white" stop-opacity="0.3"/>
</linearGradient>
<clipPath id="clip0_11297_186370">
<rect width="260" height="166" fill="white"/>
</clipPath>
</defs>
</svg>
