<svg width="24" height="24" viewBox="0 0 24 24" fill="none" xmlns="http://www.w3.org/2000/svg">
<path fill-rule="evenodd" clip-rule="evenodd" d="M5.30691 9.30788C5.1596 9.30702 5.01718 9.359 4.90713 9.45379C4.79709 9.54858 4.72722 9.67946 4.71102 9.82118L4.71073 9.82371L3.73479 18.1275L3.73467 18.1286C3.703 18.4069 3.73247 18.6886 3.82115 18.9551C3.90995 19.222 4.05611 19.4677 4.25002 19.676C4.44392 19.8843 4.68119 20.0506 4.94622 20.1638C5.21125 20.277 5.49804 20.3347 5.78773 20.333L5.79296 20.333L18.2344 20.333C18.5218 20.3317 18.8057 20.2719 19.0678 20.1577C19.3304 20.0432 19.5652 19.8766 19.7568 19.6686C19.9485 19.4606 20.0928 19.2159 20.1804 18.9504C20.268 18.6848 20.2969 18.4045 20.2652 18.1274L19.3181 9.82118C19.3019 9.67946 19.2321 9.54858 19.122 9.45379C19.012 9.359 18.8695 9.30702 18.7222 9.30788L18.717 9.30791L5.30691 9.30788ZM5.31444 7.64092C4.74238 7.63825 4.18946 7.84041 3.76208 8.20856C3.33434 8.57702 3.06264 9.08565 2.9993 9.63643L2.99914 9.63784L2.02321 17.9415L2.02292 17.9441C1.96431 18.4566 2.01843 18.9753 2.18173 19.4661C2.34503 19.9569 2.6138 20.4087 2.97039 20.7918C3.32698 21.1749 3.7633 21.4806 4.25068 21.6888C4.73724 21.8967 5.26368 22.0027 5.79551 21.9999H18.2362L18.2396 21.9999C18.7691 21.9979 19.2923 21.8881 19.7752 21.6776C20.258 21.4671 20.6897 21.1607 21.0422 20.7781C21.3947 20.3956 21.6601 19.9456 21.8211 19.4574C21.9822 18.9692 22.0353 18.4537 21.9771 17.9443L21.03 9.63808C20.967 9.08676 20.6952 8.57733 20.2671 8.20856C19.8397 7.84041 19.2868 7.63825 18.7147 7.64092H18.717V8.47441L18.7118 7.64093L18.7147 7.64092" fill="#252525"/>
<path fill-rule="evenodd" clip-rule="evenodd" d="M12.0146 3.66698C10.6972 3.66698 9.43384 4.17348 8.50233 5.07504C7.57083 5.97661 7.04752 7.1994 7.04752 8.4744C7.04752 8.93473 6.66196 9.30789 6.18636 9.30789C5.71075 9.30789 5.32519 8.93473 5.32519 8.4744C5.32519 6.75728 6.02996 5.11049 7.28446 3.89631C8.53896 2.68212 10.2404 2 12.0146 2C13.7887 2 15.4902 2.68212 16.7447 3.89631C17.9992 5.11049 18.7039 6.75728 18.7039 8.4744C18.7039 8.93473 18.3184 9.30789 17.8428 9.30789C17.3672 9.30789 16.9816 8.93473 16.9816 8.4744C16.9816 7.1994 16.4583 5.97661 15.5268 5.07504C14.5953 4.17348 13.3319 3.66698 12.0146 3.66698Z" fill="#252525"/>
<path fill-rule="evenodd" clip-rule="evenodd" d="M7.51078 12.7051C7.51078 12.2448 7.89634 11.8716 8.37194 11.8716H15.6572C16.1328 11.8716 16.5184 12.2448 16.5184 12.7051C16.5184 13.1654 16.1328 13.5386 15.6572 13.5386H8.37194C7.89634 13.5386 7.51078 13.1654 7.51078 12.7051Z" fill="#252525"/>
</svg>
