<svg width="30" height="10" viewBox="0 0 30 10" fill="none" xmlns="http://www.w3.org/2000/svg">
<path d="M10.6525 9.89409L12.1682 0.194647H14.5919L13.0756 9.89409H10.6525ZM21.8209 0.407431C21.1254 0.132616 20.3907 -0.00528358 19.651 0.000154797C17.2591 0.000154797 15.5741 1.31405 15.5596 3.19752C15.5464 4.58959 16.7628 5.36603 17.681 5.82923C18.6233 6.3043 18.94 6.60716 18.9355 7.03127C18.9296 7.68053 18.1828 7.97695 17.4873 7.97695C16.5182 7.97695 16.0037 7.82852 15.2084 7.46875L14.8967 7.31483L14.5569 9.48336C15.1222 9.75356 16.168 9.98812 17.2532 10C19.798 10 21.4498 8.70144 21.4689 6.69029C21.478 5.58822 20.8337 4.74942 19.4364 4.05809C18.5902 3.6127 18.0721 3.31083 18.0776 2.85704C18.0776 2.45471 18.5163 2.02419 19.464 2.02419C20.085 2.00903 20.702 2.13544 21.2756 2.39534L21.4925 2.50717L21.8209 0.407431ZM28.0474 0.194647H26.1827C25.6052 0.194647 25.1728 0.366871 24.9192 0.995355L21.335 9.8446H23.8861C23.8861 9.8446 24.2945 8.6678 24.3884 8.40948L27.4449 8.41345C27.5161 8.74798 27.7353 9.8446 27.7353 9.8446H30.0001L28.0474 0.194647ZM25.0825 6.43C25.2826 5.87179 26.0471 3.72207 26.0471 3.72207C26.0326 3.7478 26.2458 3.16089 26.3678 2.79716L26.5316 3.63252C26.5316 3.63252 26.9953 5.94503 27.0919 6.43H25.0825ZM8.59588 0.194647L6.23127 6.78581L5.97946 5.44621C5.53938 3.90222 4.16787 2.22956 2.6344 1.39224L4.79669 9.8446L7.35187 9.84163L11.1542 0.194647H8.5841" fill="url(#paint0_linear_3630_1859)"/>
<path d="M3.91806 0.195341H0.031302L0 0.396744C3.037 1.19893 5.04638 3.13684 5.88071 5.46471L5.03186 1.01088C4.88532 0.397741 4.46068 0.214639 3.93485 0.193359" fill="url(#paint1_linear_3630_1859)"/>
<defs>
<linearGradient id="paint0_linear_3630_1859" x1="16.3172" y1="0" x2="16.3172" y2="10" gradientUnits="userSpaceOnUse">
<stop stop-color="white"/>
<stop offset="1" stop-color="white" stop-opacity="0.75"/>
</linearGradient>
<linearGradient id="paint1_linear_3630_1859" x1="2.94036" y1="0.193359" x2="2.94036" y2="5.46471" gradientUnits="userSpaceOnUse">
<stop stop-color="white"/>
<stop offset="1" stop-color="white" stop-opacity="0.75"/>
</linearGradient>
</defs>
</svg>
